<svg width="86" height="82" viewBox="0 0 86 82" fill="none" xmlns="http://www.w3.org/2000/svg">
<mask id="path-1-inside-1_454_8447" fill="white">
<path d="M12.5868 42.5508C11.8057 41.7697 11.8057 40.5034 12.5868 39.7224L17.181 35.1281C21.8673 30.4418 29.4653 30.4418 34.1516 35.1281L38.7458 39.7224C39.5268 40.5034 39.5268 41.7697 38.7458 42.5508L34.1515 47.145C29.4653 51.8313 21.8673 51.8313 17.181 47.145L12.5868 42.5508Z"/>
</mask>
<path d="M12.5868 42.5508C11.8057 41.7697 11.8057 40.5034 12.5868 39.7224L17.181 35.1281C21.8673 30.4418 29.4653 30.4418 34.1516 35.1281L38.7458 39.7224C39.5268 40.5034 39.5268 41.7697 38.7458 42.5508L34.1515 47.145C29.4653 51.8313 21.8673 51.8313 17.181 47.145L12.5868 42.5508Z" stroke="white" stroke-width="8" mask="url(#path-1-inside-1_454_8447)"/>
<mask id="path-2-inside-2_454_8447" fill="white">
<path d="M46.6897 42.5508C45.9086 41.7697 45.9086 40.5034 46.6897 39.7224L51.2839 35.1281C55.9702 30.4418 63.5682 30.4418 68.2545 35.1281L72.8487 39.7224C73.6297 40.5034 73.6297 41.7697 72.8487 42.5508L68.2545 47.145C63.5682 51.8313 55.9702 51.8313 51.2839 47.145L46.6897 42.5508Z"/>
</mask>
<path d="M46.6897 42.5508C45.9086 41.7697 45.9086 40.5034 46.6897 39.7224L51.2839 35.1281C55.9702 30.4418 63.5682 30.4418 68.2545 35.1281L72.8487 39.7224C73.6297 40.5034 73.6297 41.7697 72.8487 42.5508L68.2545 47.145C63.5682 51.8313 55.9702 51.8313 51.2839 47.145L46.6897 42.5508Z" stroke="white" stroke-width="8" mask="url(#path-2-inside-2_454_8447)"/>
<mask id="path-3-inside-3_454_8447" fill="white">
<path d="M41.3035 11.0056C42.0845 10.2245 43.3509 10.2245 44.1319 11.0056L48.7262 15.5998C53.4125 20.2861 53.4124 27.8841 48.7262 32.5704L44.1319 37.1646C43.3509 37.9457 42.0845 37.9457 41.3035 37.1646L36.7093 32.5704C32.023 27.8841 32.023 20.2861 36.7093 15.5998L41.3035 11.0056Z"/>
</mask>
<path d="M41.3035 11.0056C42.0845 10.2245 43.3509 10.2245 44.1319 11.0056L48.7262 15.5998C53.4125 20.2861 53.4124 27.8841 48.7262 32.5704L44.1319 37.1646C43.3509 37.9457 42.0845 37.9457 41.3035 37.1646L36.7093 32.5704C32.023 27.8841 32.023 20.2861 36.7093 15.5998L41.3035 11.0056Z" stroke="white" stroke-width="8" mask="url(#path-3-inside-3_454_8447)"/>
<mask id="path-4-inside-4_454_8447" fill="white">
<path d="M41.0796 43.4142C41.8606 42.6332 43.1269 42.6332 43.908 43.4142L48.5022 48.0085C53.1885 52.6948 53.1885 60.2927 48.5022 64.979L43.908 69.5733C43.1269 70.3543 41.8606 70.3543 41.0796 69.5733L36.4853 64.979C31.799 60.2927 31.799 52.6948 36.4853 48.0085L41.0796 43.4142Z"/>
</mask>
<path d="M41.0796 43.4142C41.8606 42.6332 43.1269 42.6332 43.908 43.4142L48.5022 48.0085C53.1885 52.6948 53.1885 60.2927 48.5022 64.979L43.908 69.5733C43.1269 70.3543 41.8606 70.3543 41.0796 69.5733L36.4853 64.979C31.799 60.2927 31.799 52.6948 36.4853 48.0085L41.0796 43.4142Z" stroke="white" stroke-width="8" mask="url(#path-4-inside-4_454_8447)"/>
<path d="M50.5742 2.4826C52.9011 2.2894 54.8921 2.31914 56.7324 2.97284C57.9502 3.40545 58.8583 4.39657 60.002 5.96893C61.0318 7.38491 62.3511 9.45642 64.2695 10.8088C66.4043 12.3135 69.2726 13.332 71.3975 14.2346C73.7806 15.2468 75.2531 16.1125 75.8945 17.1838C76.7078 18.5421 77.1151 20.2262 77.4824 22.3683C77.8326 24.4104 78.1499 26.9168 78.8916 29.3664C79.5517 31.5465 80.9495 33.8343 81.9326 35.6887C83.0088 37.7185 83.7158 39.4173 83.7158 41.0002C83.7158 42.5144 83.0628 43.851 82.0107 45.5109C81.0431 47.0376 79.5798 49.0271 78.8916 51.3C78.1278 53.8226 77.9933 56.6947 77.7373 58.9338C77.4619 61.3422 77.0467 63.2246 75.9951 64.6642C74.9525 66.0914 73.283 67.0713 71.083 68.0803C69.0432 69.0157 66.3747 70.0319 64.2695 71.5158C62.377 72.8499 61.0636 74.8084 60.0322 76.1535C58.904 77.625 57.9884 78.5803 56.7324 79.0266C54.892 79.6803 52.9012 79.711 50.5742 79.5178C48.3833 79.3358 45.627 78.9113 43 78.9113C40.373 78.9113 37.6167 79.3358 35.4258 79.5178C33.0988 79.711 31.108 79.6803 29.2676 79.0266C27.5883 78.43 26.2392 77.372 24.7998 76.0041C23.4439 74.7155 21.8244 72.9461 19.9834 71.5549C18.1879 70.1981 15.9727 69.0837 14.2627 68.0881C12.4327 67.0226 10.9786 65.9971 10.0049 64.6642C8.89342 63.1427 8.30177 61.1645 7.82812 58.7726C7.38525 56.5362 7.0208 53.7134 6.29004 51.3C5.63478 49.136 4.45423 47.1935 3.66992 45.6672C2.83665 44.0456 2.28422 42.6387 2.28418 41.0002C2.28418 39.4173 2.99122 37.7185 4.06738 35.6887C5.05051 33.8343 6.44826 31.5465 7.1084 29.3664C7.86541 26.8662 8.00527 24.3423 8.25781 22.4348C8.52301 20.4317 8.91926 18.8223 10.0049 17.3361C10.9564 16.0336 12.3753 15.0926 14.2051 14.1066C15.9123 13.1866 18.1523 12.1534 19.9834 10.7697C21.8557 9.35482 23.477 7.48794 24.8398 6.11932C26.2918 4.66125 27.6259 3.55605 29.2676 2.97284C31.1079 2.31914 33.0989 2.2894 35.4258 2.4826C37.6167 2.66453 40.373 3.08807 43 3.08807C45.627 3.08807 48.3833 2.66453 50.5742 2.4826Z" stroke="white" stroke-width="4"/>
</svg>
