<svg width="86" height="83" viewBox="0 0 86 83" fill="none" xmlns="http://www.w3.org/2000/svg">
<mask id="path-1-inside-1_454_9447" fill="white">
<path d="M12.5866 43.0507C11.8055 42.2697 11.8055 41.0034 12.5866 40.2223L17.1808 35.6281C21.8671 30.9418 29.4651 30.9418 34.1514 35.6281L38.7456 40.2223C39.5267 41.0034 39.5267 42.2697 38.7456 43.0507L34.1514 47.645C29.4651 52.3313 21.8671 52.3313 17.1808 47.645L12.5866 43.0507Z"/>
</mask>
<path d="M12.5866 43.0507C11.8055 42.2697 11.8055 41.0034 12.5866 40.2223L17.1808 35.6281C21.8671 30.9418 29.4651 30.9418 34.1514 35.6281L38.7456 40.2223C39.5267 41.0034 39.5267 42.2697 38.7456 43.0507L34.1514 47.645C29.4651 52.3313 21.8671 52.3313 17.1808 47.645L12.5866 43.0507Z" stroke="#C69B7B" stroke-width="8" mask="url(#path-1-inside-1_454_9447)"/>
<mask id="path-2-inside-2_454_9447" fill="white">
<path d="M46.6896 43.0507C45.9086 42.2697 45.9086 41.0034 46.6896 40.2223L51.2838 35.6281C55.9701 30.9418 63.5681 30.9418 68.2544 35.6281L72.8486 40.2223C73.6297 41.0034 73.6297 42.2697 72.8486 43.0507L68.2544 47.645C63.5681 52.3313 55.9701 52.3313 51.2838 47.645L46.6896 43.0507Z"/>
</mask>
<path d="M46.6896 43.0507C45.9086 42.2697 45.9086 41.0034 46.6896 40.2223L51.2838 35.6281C55.9701 30.9418 63.5681 30.9418 68.2544 35.6281L72.8486 40.2223C73.6297 41.0034 73.6297 42.2697 72.8486 43.0507L68.2544 47.645C63.5681 52.3313 55.9701 52.3313 51.2838 47.645L46.6896 43.0507Z" stroke="#C69B7B" stroke-width="8" mask="url(#path-2-inside-2_454_9447)"/>
<mask id="path-3-inside-3_454_9447" fill="white">
<path d="M41.3036 11.5056C42.0846 10.7245 43.3509 10.7245 44.132 11.5056L48.7262 16.0998C53.4125 20.7861 53.4125 28.3841 48.7262 33.0704L44.132 37.6646C43.3509 38.4456 42.0846 38.4456 41.3036 37.6646L36.7093 33.0704C32.023 28.3841 32.023 20.7861 36.7093 16.0998L41.3036 11.5056Z"/>
</mask>
<path d="M41.3036 11.5056C42.0846 10.7245 43.3509 10.7245 44.132 11.5056L48.7262 16.0998C53.4125 20.7861 53.4125 28.3841 48.7262 33.0704L44.132 37.6646C43.3509 38.4456 42.0846 38.4456 41.3036 37.6646L36.7093 33.0704C32.023 28.3841 32.023 20.7861 36.7093 16.0998L41.3036 11.5056Z" stroke="#C69B7B" stroke-width="8" mask="url(#path-3-inside-3_454_9447)"/>
<mask id="path-4-inside-4_454_9447" fill="white">
<path d="M41.0794 43.9142C41.8605 43.1332 43.1268 43.1332 43.9079 43.9142L48.5021 48.5084C53.1884 53.1947 53.1884 60.7927 48.5021 65.479L43.9079 70.0732C43.1268 70.8543 41.8605 70.8543 41.0794 70.0732L36.4852 65.479C31.7989 60.7927 31.7989 53.1947 36.4852 48.5084L41.0794 43.9142Z"/>
</mask>
<path d="M41.0794 43.9142C41.8605 43.1332 43.1268 43.1332 43.9079 43.9142L48.5021 48.5084C53.1884 53.1947 53.1884 60.7927 48.5021 65.479L43.9079 70.0732C43.1268 70.8543 41.8605 70.8543 41.0794 70.0732L36.4852 65.479C31.7989 60.7927 31.7989 53.1947 36.4852 48.5084L41.0794 43.9142Z" stroke="#C69B7B" stroke-width="8" mask="url(#path-4-inside-4_454_9447)"/>
<path d="M50.5742 2.98259C52.9011 2.78938 54.8921 2.81913 56.7324 3.47282C57.9502 3.90543 58.8583 4.89655 60.002 6.46892C61.0318 7.8849 62.3511 9.9564 64.2695 11.3088C66.4043 12.8135 69.2726 13.832 71.3975 14.7345C73.7806 15.7468 75.2531 16.6125 75.8945 17.6838C76.7078 19.0421 77.1151 20.7262 77.4824 22.8683C77.8326 24.9104 78.1499 27.4168 78.8916 29.8664C79.5517 32.0465 80.9495 34.3343 81.9326 36.1886C83.0088 38.2185 83.7158 39.9173 83.7158 41.5002C83.7158 43.0144 83.0628 44.3509 82.0107 46.0109C81.0431 47.5376 79.5798 49.5271 78.8916 51.8C78.1278 54.3226 77.9933 57.1947 77.7373 59.4338C77.4619 61.8422 77.0467 63.7246 75.9951 65.1642C74.9525 66.5914 73.283 67.5713 71.083 68.5802C69.0432 69.5157 66.3747 70.5319 64.2695 72.0158C62.377 73.3499 61.0636 75.3084 60.0322 76.6535C58.904 78.125 57.9884 79.0803 56.7324 79.5265C54.892 80.1803 52.9012 80.211 50.5742 80.0177C48.3833 79.8358 45.627 79.4113 43 79.4113C40.373 79.4113 37.6167 79.8358 35.4258 80.0177C33.0988 80.211 31.108 80.1803 29.2676 79.5265C27.5883 78.93 26.2392 77.872 24.7998 76.5041C23.4439 75.2155 21.8244 73.4461 19.9834 72.0549C18.1879 70.6981 15.9727 69.5837 14.2627 68.5881C12.4327 67.5226 10.9786 66.4971 10.0049 65.1642C8.89342 63.6427 8.30177 61.6645 7.82812 59.2726C7.38525 57.0362 7.0208 54.2134 6.29004 51.8C5.63478 49.636 4.45423 47.6934 3.66992 46.1672C2.83665 44.5456 2.28422 43.1387 2.28418 41.5002C2.28418 39.9173 2.99122 38.2185 4.06738 36.1886C5.05051 34.3343 6.44826 32.0465 7.1084 29.8664C7.86541 27.3661 8.00527 24.8423 8.25781 22.9347C8.52301 20.9317 8.91926 19.3223 10.0049 17.8361C10.9564 16.5336 12.3753 15.5926 14.2051 14.6066C15.9123 13.6866 18.1523 12.6534 19.9834 11.2697C21.8557 9.85481 23.477 7.98793 24.8398 6.61931C26.2918 5.16123 27.6259 4.05604 29.2676 3.47282C31.1079 2.81913 33.0989 2.78938 35.4258 2.98259C37.6167 3.16452 40.373 3.58806 43 3.58806C45.627 3.58806 48.3833 3.16452 50.5742 2.98259Z" stroke="#C69B7B" stroke-width="4"/>
</svg>
