<svg width="12" height="13" viewBox="0 0 12 13" fill="none" xmlns="http://www.w3.org/2000/svg">
<path d="M6 0.121948C8.39664 0.121948 9.59486 0.122194 10.458 0.693237C10.8435 0.948274 11.1737 1.2785 11.4287 1.66394C11.9998 2.52709 12 3.72531 12 6.12195C12 8.51859 11.9998 9.71681 11.4287 10.58C11.1737 10.9654 10.8435 11.2956 10.458 11.5507C9.59486 12.1217 8.39664 12.1219 6 12.1219C3.60336 12.1219 2.40514 12.1217 1.54199 11.5507C1.15655 11.2956 0.826325 10.9654 0.571289 10.58C0.000245758 9.71681 0 8.51859 0 6.12195C0 3.72531 0.000245908 2.52709 0.571289 1.66394C0.826325 1.2785 1.15655 0.948274 1.54199 0.693237C2.40514 0.122194 3.60336 0.121948 6 0.121948ZM6 3.0155C4.2845 3.0155 2.89364 4.40647 2.89355 6.12195C2.89355 7.83749 4.28445 9.22839 6 9.22839C7.7155 9.22834 9.10645 7.83746 9.10645 6.12195C9.10636 4.40651 7.71545 3.01556 6 3.0155ZM6 4.06628C7.13503 4.06634 8.05558 4.98692 8.05566 6.12195C8.05566 7.25704 7.13508 8.17756 6 8.17761C4.86487 8.17761 3.94434 7.25708 3.94434 6.12195C3.94442 4.98689 4.86492 4.06628 6 4.06628ZM9.22852 2.12976C8.82557 2.12994 8.49902 2.45724 8.49902 2.86023C8.49927 3.26301 8.82572 3.58954 9.22852 3.58972C9.63146 3.58972 9.95873 3.26312 9.95898 2.86023C9.95898 2.45713 9.63162 2.12976 9.22852 2.12976Z" fill="white"/>
</svg>
