<svg width="12" height="12" viewBox="0 0 12 12" fill="none" xmlns="http://www.w3.org/2000/svg">
<path d="M0 1.73521C0 1.35041 0.135139 1.03295 0.405405 0.782834C0.675672 0.53271 1.02703 0.407654 1.45946 0.407654C1.88417 0.407654 2.2278 0.530782 2.49035 0.777062C2.76061 1.03103 2.89575 1.36195 2.89575 1.76985C2.89575 2.13925 2.76448 2.44709 2.50193 2.69337C2.23166 2.94734 1.87645 3.07432 1.43629 3.07432H1.42471C0.999996 3.07432 0.656375 2.94734 0.393822 2.69337C0.13127 2.4394 0 2.12001 0 1.73521ZM0.150579 11.8362V4.12482H2.72201V11.8362H0.150579ZM4.14672 11.8362H6.71815V7.53031C6.71815 7.26094 6.74904 7.05315 6.81081 6.90693C6.91891 6.64526 7.08301 6.424 7.30309 6.24315C7.52317 6.06229 7.79922 5.97187 8.13127 5.97187C8.99614 5.97187 9.42857 6.55291 9.42857 7.71501V11.8362H12V7.41487C12 6.27585 11.7297 5.41198 11.1892 4.82324C10.6486 4.23449 9.93437 3.94012 9.04633 3.94012C8.05019 3.94012 7.27413 4.36725 6.71815 5.2215V5.24459H6.70656L6.71815 5.2215V4.12482H4.14672C4.16216 4.37109 4.16988 5.13684 4.16988 6.42208C4.16988 7.70731 4.16216 9.51202 4.14672 11.8362Z" fill="white"/>
</svg>
