<svg width="145" height="39" viewBox="0 0 145 39" fill="none" xmlns="http://www.w3.org/2000/svg">
<mask id="path-1-inside-1_454_9197" fill="white">
<path d="M5.84383 19.9351C5.4533 19.5446 5.4533 18.9114 5.84383 18.5209L7.73155 16.6332C10.0747 14.29 13.8737 14.29 16.2168 16.6332L18.1046 18.5209C18.4951 18.9114 18.4951 19.5446 18.1046 19.9351L16.2168 21.8229C13.8737 24.166 10.0747 24.166 7.73155 21.8229L5.84383 19.9351Z"/>
</mask>
<path d="M5.84383 19.9351C5.4533 19.5446 5.4533 18.9114 5.84383 18.5209L7.73155 16.6332C10.0747 14.29 13.8737 14.29 16.2168 16.6332L18.1046 18.5209C18.4951 18.9114 18.4951 19.5446 18.1046 19.9351L16.2168 21.8229C13.8737 24.166 10.0747 24.166 7.73155 21.8229L5.84383 19.9351Z" stroke="#CAC9CF" stroke-width="5" mask="url(#path-1-inside-1_454_9197)"/>
<mask id="path-2-inside-2_454_9197" fill="white">
<path d="M21.932 19.9351C21.5414 19.5446 21.5414 18.9114 21.932 18.5209L23.8197 16.6332C26.1628 14.29 29.9618 14.29 32.305 16.6332L34.1927 18.5209C34.5832 18.9114 34.5832 19.5446 34.1927 19.9351L32.305 21.8229C29.9618 24.166 26.1628 24.166 23.8197 21.8229L21.932 19.9351Z"/>
</mask>
<path d="M21.932 19.9351C21.5414 19.5446 21.5414 18.9114 21.932 18.5209L23.8197 16.6332C26.1628 14.29 29.9618 14.29 32.305 16.6332L34.1927 18.5209C34.5832 18.9114 34.5832 19.5446 34.1927 19.9351L32.305 21.8229C29.9618 24.166 26.1628 24.166 23.8197 21.8229L21.932 19.9351Z" stroke="#CAC9CF" stroke-width="5" mask="url(#path-2-inside-2_454_9197)"/>
<mask id="path-3-inside-3_454_9197" fill="white">
<path d="M19.3112 5.05354C19.7017 4.66302 20.3349 4.66302 20.7254 5.05354L22.6131 6.94127C24.9563 9.28441 24.9563 13.0834 22.6131 15.4266L20.7254 17.3143C20.3349 17.7048 19.7017 17.7048 19.3112 17.3143L17.4235 15.4266C15.0803 13.0834 15.0803 9.28441 17.4235 6.94127L19.3112 5.05354Z"/>
</mask>
<path d="M19.3112 5.05354C19.7017 4.66302 20.3349 4.66302 20.7254 5.05354L22.6131 6.94127C24.9563 9.28441 24.9563 13.0834 22.6131 15.4266L20.7254 17.3143C20.3349 17.7048 19.7017 17.7048 19.3112 17.3143L17.4235 15.4266C15.0803 13.0834 15.0803 9.28441 17.4235 6.94127L19.3112 5.05354Z" stroke="#CAC9CF" stroke-width="5" mask="url(#path-3-inside-3_454_9197)"/>
<mask id="path-4-inside-4_454_9197" fill="white">
<path d="M19.2055 20.3426C19.596 19.9521 20.2292 19.9521 20.6197 20.3426L22.5074 22.2303C24.8506 24.5735 24.8506 28.3725 22.5074 30.7156L20.6197 32.6033C20.2292 32.9939 19.596 32.9939 19.2055 32.6033L17.3178 30.7156C14.9746 28.3725 14.9746 24.5735 17.3178 22.2303L19.2055 20.3426Z"/>
</mask>
<path d="M19.2055 20.3426C19.596 19.9521 20.2292 19.9521 20.6197 20.3426L22.5074 22.2303C24.8506 24.5735 24.8506 28.3725 22.5074 30.7156L20.6197 32.6033C20.2292 32.9939 19.596 32.9939 19.2055 32.6033L17.3178 30.7156C14.9746 28.3725 14.9746 24.5735 17.3178 22.2303L19.2055 20.3426Z" stroke="#CAC9CF" stroke-width="5" mask="url(#path-4-inside-4_454_9197)"/>
<path d="M23.75 1.29785C24.8356 1.20771 25.7219 1.22654 26.5273 1.5127C27.0049 1.68235 27.3852 2.07688 27.9238 2.81738C28.3914 3.46029 29.0508 4.49559 30.0088 5.1709C31.051 5.90557 32.4546 6.40502 33.4277 6.81836C34.5624 7.30033 35.1618 7.67761 35.4062 8.08594C35.7581 8.67358 35.9434 9.41776 36.1162 10.4258C36.2784 11.3714 36.4328 12.5849 36.79 13.7646C37.1129 14.8308 37.7983 15.9554 38.2471 16.8018C38.7538 17.7576 39.0526 18.4992 39.0527 19.1631C39.0527 19.7842 38.7878 20.3518 38.2959 21.1279C37.8568 21.8207 37.1304 22.8096 36.79 23.9336C36.419 25.1589 36.3515 26.5641 36.2344 27.5889C36.1051 28.7195 35.915 29.5369 35.4697 30.1465C35.0282 30.751 34.3051 31.1861 33.2715 31.6602C32.338 32.0882 31.0325 32.5879 30.0088 33.3096C29.0673 33.9733 28.4119 34.9495 27.9434 35.5605C27.4143 36.2506 27.0289 36.6363 26.5273 36.8145C25.7219 37.1006 24.8356 37.1194 23.75 37.0293C22.7494 36.9462 21.4061 36.7422 20.1514 36.7422C18.8967 36.7422 17.5533 36.9462 16.5527 37.0293C15.4671 37.1194 14.5809 37.1006 13.7754 36.8145C13.0442 36.5547 12.4454 36.0908 11.7764 35.4551C11.1596 34.869 10.365 34.004 9.47852 33.334C8.61188 32.6791 7.53 32.133 6.74805 31.6777C5.89128 31.1789 5.2528 30.7212 4.83301 30.1465C4.3503 29.4857 4.08122 28.6086 3.85938 27.4883C3.65676 26.4651 3.4773 25.0906 3.12695 23.9336C2.80719 22.8776 2.226 21.9181 1.87012 21.2256C1.48359 20.4734 1.25 19.8619 1.25 19.1631C1.25014 18.4992 1.5489 17.7576 2.05566 16.8018C2.50441 15.9554 3.1898 14.8308 3.5127 13.7646C3.87951 12.5532 3.95041 11.3141 4.06543 10.4453C4.18834 9.51705 4.36649 8.81933 4.83301 8.18066C5.23894 7.62496 5.85618 7.20776 6.71289 6.74609C7.49309 6.32569 8.5898 5.81808 9.47852 5.14648C10.3844 4.46181 11.1798 3.5485 11.8008 2.9248C12.4777 2.24504 13.0676 1.76415 13.7754 1.5127C14.5809 1.22655 15.4671 1.20771 16.5527 1.29785C17.5533 1.38093 18.8967 1.58496 20.1514 1.58496C21.4061 1.58496 22.7494 1.38093 23.75 1.29785Z" stroke="#CAC9CF" stroke-width="2.5"/>
<path d="M72.2271 8.90356C72.3449 8.90356 72.458 8.95955 72.5417 9.05934C72.6254 9.15914 72.673 9.29467 72.6741 9.43644V28.7167C72.6741 28.8585 72.6275 28.9945 72.5446 29.0952C72.4616 29.1959 72.349 29.2532 72.2311 29.2544H70.0486C69.9308 29.2532 69.8181 29.1959 69.7352 29.0952C69.6522 28.9945 69.6057 28.8585 69.6057 28.7167V16.1748C69.4339 16.3428 69.2567 16.5043 69.0741 16.6593C68.5547 17.0953 68.0272 17.4634 67.5158 17.8219C67.0044 18.1804 66.6661 18.4614 66.2635 18.7472C65.5096 19.271 64.8532 19.9756 64.3351 20.8172C63.8169 21.6589 63.4481 22.6196 63.2514 23.6399C63.2294 23.7586 63.1742 23.8647 63.0951 23.9405C63.016 24.0163 62.9177 24.0572 62.8165 24.0565H60.7347C60.6336 24.0572 60.5353 24.0163 60.4562 23.9405C60.3771 23.8647 60.3219 23.7586 60.2998 23.6399C60.1032 22.6184 59.734 21.6564 59.2151 20.8138C58.6962 19.9713 58.0388 19.2662 57.2838 18.7423C56.8811 18.4565 56.4784 18.1416 56.0315 17.8171C55.5845 17.4925 54.9925 17.0904 54.4731 16.6544C54.2905 16.5026 54.1134 16.3412 53.9416 16.17V28.7167C53.9416 28.8585 53.895 28.9945 53.8121 29.0952C53.7291 29.1959 53.6165 29.2532 53.4986 29.2544H51.3201C51.2023 29.2532 51.0896 29.1959 51.0067 29.0952C50.9237 28.9945 50.8772 28.8585 50.8772 28.7167V9.44128C50.8772 9.29867 50.9243 9.1619 51.0081 9.06106C51.0919 8.96022 51.2056 8.90356 51.3242 8.90356H53.4785C53.5834 8.90531 53.6845 8.9514 53.764 9.03376C53.8435 9.11613 53.8964 9.22952 53.9134 9.35408C54.0342 10.2939 54.4932 12.4883 56.1724 13.7139C56.6153 14.0288 57.0542 14.3825 57.5375 14.7264C58.0207 15.0704 58.4918 15.3852 58.9509 15.7728C59.8883 16.5225 60.7271 17.4369 61.4394 18.4856C61.4797 18.5471 61.5311 18.5968 61.5897 18.6309C61.6483 18.6651 61.7125 18.6828 61.7776 18.6828C61.8427 18.6828 61.907 18.6651 61.9656 18.6309C62.0242 18.5968 62.0756 18.5471 62.1159 18.4856C62.8267 17.4356 63.6641 16.5195 64.6004 15.7679C65.0796 15.3804 65.5789 15.0316 66.0178 14.7216C66.4567 14.4115 66.948 14.0288 67.3789 13.7139C69.0621 12.5077 69.5211 10.3229 69.6419 9.35408C69.6589 9.22952 69.7118 9.11613 69.7913 9.03376C69.8708 8.9514 69.9719 8.90531 70.0768 8.90356H72.2271Z" fill="#CAC9CF"/>
<path d="M95.4618 19.079C95.4618 24.6852 91.0189 29.2544 85.5541 29.2544C80.0894 29.2544 75.6465 24.69 75.6465 19.079C75.6465 13.468 80.0894 8.90356 85.5541 8.90356C91.0189 8.90356 95.4618 13.468 95.4618 19.079ZM85.5541 12.6006C81.8102 12.6006 78.7651 15.5079 78.7651 19.079C78.7651 22.6501 81.8102 25.5331 85.5541 25.5331C89.2981 25.5331 92.3473 22.6259 92.3473 19.0596C92.3473 15.4934 89.2981 12.6006 85.5541 12.6006Z" fill="#CAC9CF"/>
<path d="M118.249 19.079C118.249 24.6852 113.584 29.2544 107.846 29.2544C102.108 29.2544 97.4431 24.69 97.4431 19.079C97.4431 13.468 102.108 8.90356 107.846 8.90356C113.584 8.90356 118.249 13.468 118.249 19.079ZM107.846 12.6006C103.915 12.6006 100.713 15.5079 100.713 19.079C100.713 22.6501 103.915 25.5331 107.846 25.5331C111.777 25.5331 114.975 22.6259 114.975 19.0596C114.975 15.4934 111.764 12.6006 107.846 12.6006Z" fill="#CAC9CF"/>
<path d="M135.979 18.9288V9.43656C135.979 9.36657 135.99 9.29726 136.013 9.23259C136.035 9.16793 136.068 9.10917 136.109 9.05968C136.15 9.01018 136.199 8.97092 136.253 8.94414C136.307 8.91735 136.365 8.90356 136.423 8.90356H138.611C138.67 8.90356 138.727 8.91735 138.781 8.94414C138.835 8.97092 138.884 9.01018 138.925 9.05968C138.967 9.10917 138.999 9.16793 139.022 9.23259C139.044 9.29726 139.055 9.36657 139.055 9.43656V28.7214C139.055 28.7914 139.044 28.8607 139.022 28.9254C138.999 28.9901 138.967 29.0488 138.925 29.0983C138.884 29.1478 138.835 29.1871 138.781 29.2139C138.727 29.2407 138.67 29.2544 138.611 29.2544H136.443C136.385 29.2544 136.327 29.2407 136.273 29.2139C136.219 29.1871 136.17 29.1478 136.129 29.0983C136.088 29.0488 136.055 28.9901 136.033 28.9254C136.011 28.8607 135.999 28.7914 135.999 28.7214V27.2048C136.001 26.7301 135.913 26.261 135.741 25.8336C135.099 24.2733 133.439 21.3854 129.563 19.6168C127.926 18.8907 126.392 17.8641 125.017 16.5739C124.952 16.5102 124.873 16.47 124.79 16.4582C124.707 16.4464 124.622 16.4634 124.547 16.5072C124.471 16.5509 124.408 16.6197 124.364 16.7054C124.32 16.791 124.297 16.89 124.298 16.9906V28.7214C124.298 28.8628 124.251 28.9984 124.168 29.0983C124.085 29.1983 123.972 29.2544 123.854 29.2544H121.666C121.548 29.2544 121.435 29.1983 121.352 29.0983C121.268 28.9984 121.222 28.8628 121.222 28.7214V9.43656C121.222 9.2952 121.268 9.15963 121.352 9.05968C121.435 8.95972 121.548 8.90356 121.666 8.90356H123.794C123.882 8.90567 123.968 8.93961 124.04 9.00097C124.112 9.06232 124.167 9.14825 124.197 9.24759C124.549 10.3911 126.01 14.093 130.633 16.1572C132.306 16.8914 133.862 17.9649 135.232 19.331C135.296 19.3978 135.375 19.441 135.459 19.4556C135.544 19.4701 135.63 19.4553 135.707 19.413C135.784 19.3706 135.85 19.3024 135.896 19.2166C135.942 19.1308 135.967 19.0309 135.967 18.9288H135.979Z" fill="#CAC9CF"/>
<path d="M142.028 27.2194C142.028 26.8167 142.115 26.423 142.278 26.0883C142.442 25.7535 142.674 25.4926 142.946 25.3388C143.218 25.1849 143.517 25.1449 143.805 25.2238C144.093 25.3027 144.358 25.497 144.566 25.7822C144.774 26.0673 144.915 26.4303 144.972 26.8254C145.029 27.2205 144.999 27.6299 144.886 28.0017C144.773 28.3734 144.582 28.6909 144.337 28.9139C144.092 29.137 143.804 29.2555 143.51 29.2545C143.315 29.2545 143.122 29.2018 142.942 29.0995C142.762 28.9972 142.598 28.8472 142.461 28.6581C142.323 28.4691 142.214 28.2447 142.139 27.9978C142.065 27.7509 142.027 27.4864 142.028 27.2194Z" fill="#CAC9CF"/>
</svg>
