<svg width="145" height="40" viewBox="0 0 145 40" fill="none" xmlns="http://www.w3.org/2000/svg">
<mask id="path-1-inside-1_454_8416" fill="white">
<path d="M5.84376 20.7714C5.45324 20.3809 5.45324 19.7477 5.84376 19.3572L7.73149 17.4695C10.0746 15.1263 13.8736 15.1263 16.2168 17.4695L18.1045 19.3572C18.495 19.7477 18.495 20.3809 18.1045 20.7714L16.2168 22.6591C13.8736 25.0023 10.0746 25.0023 7.73149 22.6591L5.84376 20.7714Z"/>
</mask>
<path d="M5.84376 20.7714C5.45324 20.3809 5.45324 19.7477 5.84376 19.3572L7.73149 17.4695C10.0746 15.1263 13.8736 15.1263 16.2168 17.4695L18.1045 19.3572C18.495 19.7477 18.495 20.3809 18.1045 20.7714L16.2168 22.6591C13.8736 25.0023 10.0746 25.0023 7.73149 22.6591L5.84376 20.7714Z" stroke="#3A3845" stroke-width="5" mask="url(#path-1-inside-1_454_8416)"/>
<mask id="path-2-inside-2_454_8416" fill="white">
<path d="M21.9319 20.7714C21.5414 20.3809 21.5414 19.7477 21.9319 19.3572L23.8196 17.4695C26.1628 15.1263 29.9618 15.1263 32.3049 17.4695L34.1926 19.3572C34.5832 19.7477 34.5832 20.3809 34.1926 20.7714L32.3049 22.6591C29.9618 25.0023 26.1628 25.0023 23.8196 22.6591L21.9319 20.7714Z"/>
</mask>
<path d="M21.9319 20.7714C21.5414 20.3809 21.5414 19.7477 21.9319 19.3572L23.8196 17.4695C26.1628 15.1263 29.9618 15.1263 32.3049 17.4695L34.1926 19.3572C34.5832 19.7477 34.5832 20.3809 34.1926 20.7714L32.3049 22.6591C29.9618 25.0023 26.1628 25.0023 23.8196 22.6591L21.9319 20.7714Z" stroke="#3A3845" stroke-width="5" mask="url(#path-2-inside-2_454_8416)"/>
<mask id="path-3-inside-3_454_8416" fill="white">
<path d="M19.3111 5.8899C19.7016 5.49938 20.3348 5.49938 20.7253 5.8899L22.613 7.77763C24.9562 10.1208 24.9562 13.9198 22.613 16.2629L20.7253 18.1506C20.3348 18.5412 19.7016 18.5412 19.3111 18.1506L17.4234 16.2629C15.0802 13.9198 15.0802 10.1208 17.4234 7.77763L19.3111 5.8899Z"/>
</mask>
<path d="M19.3111 5.8899C19.7016 5.49938 20.3348 5.49938 20.7253 5.8899L22.613 7.77763C24.9562 10.1208 24.9562 13.9198 22.613 16.2629L20.7253 18.1506C20.3348 18.5412 19.7016 18.5412 19.3111 18.1506L17.4234 16.2629C15.0802 13.9198 15.0802 10.1208 17.4234 7.77763L19.3111 5.8899Z" stroke="#3A3845" stroke-width="5" mask="url(#path-3-inside-3_454_8416)"/>
<mask id="path-4-inside-4_454_8416" fill="white">
<path d="M19.2054 21.1788C19.596 20.7883 20.2291 20.7883 20.6196 21.1788L22.5074 23.0666C24.8505 25.4097 24.8505 29.2087 22.5074 31.5518L20.6196 33.4396C20.2291 33.8301 19.596 33.8301 19.2054 33.4396L17.3177 31.5518C14.9746 29.2087 14.9746 25.4097 17.3177 23.0666L19.2054 21.1788Z"/>
</mask>
<path d="M19.2054 21.1788C19.596 20.7883 20.2291 20.7883 20.6196 21.1788L22.5074 23.0666C24.8505 25.4097 24.8505 29.2087 22.5074 31.5518L20.6196 33.4396C20.2291 33.8301 19.596 33.8301 19.2054 33.4396L17.3177 31.5518C14.9746 29.2087 14.9746 25.4097 17.3177 23.0666L19.2054 21.1788Z" stroke="#3A3845" stroke-width="5" mask="url(#path-4-inside-4_454_8416)"/>
<path d="M23.75 2.13428C24.8356 2.04414 25.7219 2.06297 26.5273 2.34912C27.0049 2.51878 27.3852 2.91331 27.9238 3.65381C28.3914 4.29671 29.0508 5.33201 30.0088 6.00732C31.051 6.742 32.4546 7.24144 33.4277 7.65479C34.5624 8.13676 35.1618 8.51404 35.4062 8.92236C35.7581 9.51001 35.9434 10.2542 36.1162 11.2622C36.2784 12.2078 36.4328 13.4214 36.79 14.6011C37.1129 15.6672 37.7983 16.7918 38.2471 17.6382C38.7538 18.594 39.0526 19.3357 39.0527 19.9995C39.0527 20.6206 38.7878 21.1882 38.2959 21.9644C37.8568 22.6571 37.1304 23.646 36.79 24.77C36.419 25.9953 36.3515 27.4005 36.2344 28.4253C36.1051 29.5559 35.915 30.3733 35.4697 30.9829C35.0282 31.5874 34.3051 32.0226 33.2715 32.4966C32.338 32.9246 31.0325 33.4243 30.0088 34.146C29.0673 34.8097 28.4119 35.7859 27.9434 36.397C27.4143 37.087 27.0289 37.4727 26.5273 37.6509C25.7219 37.937 24.8356 37.9559 23.75 37.8657C22.7494 37.7826 21.4061 37.5786 20.1514 37.5786C18.8967 37.5786 17.5533 37.7826 16.5527 37.8657C15.4671 37.9559 14.5809 37.937 13.7754 37.6509C13.0442 37.3911 12.4454 36.9273 11.7764 36.2915C11.1596 35.7054 10.365 34.8404 9.47852 34.1704C8.61188 33.5155 7.53 32.9694 6.74805 32.5142C5.89128 32.0153 5.2528 31.5576 4.83301 30.9829C4.3503 30.3221 4.08122 29.445 3.85938 28.3247C3.65676 27.3015 3.4773 25.927 3.12695 24.77C2.80719 23.714 2.226 22.7545 1.87012 22.062C1.48359 21.3098 1.25 20.6984 1.25 19.9995C1.25014 19.3357 1.5489 18.594 2.05566 17.6382C2.50441 16.7918 3.1898 15.6672 3.5127 14.6011C3.87951 13.3897 3.95041 12.1505 4.06543 11.2817C4.18834 10.3535 4.36649 9.65575 4.83301 9.01709C5.23894 8.46138 5.85618 8.04418 6.71289 7.58252C7.49309 7.16212 8.5898 6.6545 9.47852 5.98291C10.3844 5.29824 11.1798 4.38493 11.8008 3.76123C12.4777 3.08147 13.0676 2.60057 13.7754 2.34912C14.5809 2.06297 15.4671 2.04414 16.5527 2.13428C17.5533 2.21736 18.8967 2.42139 20.1514 2.42139C21.4061 2.42139 22.7494 2.21736 23.75 2.13428Z" stroke="#3A3845" stroke-width="2.5"/>
<path d="M72.2271 9.73994C72.3449 9.73993 72.458 9.79592 72.5417 9.89571C72.6254 9.99551 72.673 10.131 72.6741 10.2728V29.5531C72.6741 29.6949 72.6275 29.8309 72.5446 29.9316C72.4616 30.0323 72.349 30.0895 72.2311 30.0908H70.0486C69.9308 30.0895 69.8181 30.0323 69.7352 29.9316C69.6522 29.8309 69.6057 29.6949 69.6057 29.5531V17.0112C69.4339 17.1792 69.2567 17.3406 69.0741 17.4956C68.5547 17.9316 68.0272 18.2998 67.5158 18.6583C67.0044 19.0168 66.6661 19.2977 66.2635 19.5835C65.5096 20.1073 64.8532 20.8119 64.3351 21.6536C63.8169 22.4952 63.4481 23.456 63.2514 24.4763C63.2294 24.595 63.1742 24.7011 63.0951 24.7769C63.016 24.8527 62.9177 24.8936 62.8165 24.8929H60.7347C60.6336 24.8936 60.5353 24.8527 60.4562 24.7769C60.3771 24.7011 60.3219 24.595 60.2998 24.4763C60.1032 23.4547 59.734 22.4928 59.2151 21.6502C58.6962 20.8077 58.0388 20.1025 57.2838 19.5787C56.8811 19.2929 56.4784 18.978 56.0315 18.6534C55.5845 18.3289 54.9925 17.9268 54.4731 17.4908C54.2905 17.339 54.1134 17.1775 53.9416 17.0064V29.5531C53.9416 29.6949 53.895 29.8309 53.8121 29.9316C53.7291 30.0323 53.6165 30.0895 53.4986 30.0908H51.3201C51.2023 30.0895 51.0896 30.0323 51.0067 29.9316C50.9237 29.8309 50.8772 29.6949 50.8772 29.5531V10.2777C50.8772 10.135 50.9243 9.99827 51.0081 9.89743C51.0919 9.79659 51.2056 9.73994 51.3242 9.73994H53.4785C53.5834 9.74168 53.6845 9.78777 53.764 9.87014C53.8435 9.9525 53.8964 10.0659 53.9134 10.1905C54.0342 11.1302 54.4932 13.3247 56.1724 14.5503C56.6153 14.8652 57.0542 15.2188 57.5375 15.5628C58.0207 15.9067 58.4918 16.2216 58.9509 16.6091C59.8883 17.3589 60.7271 18.2733 61.4394 19.3219C61.4797 19.3834 61.5311 19.4331 61.5897 19.4673C61.6483 19.5015 61.7125 19.5192 61.7776 19.5192C61.8427 19.5192 61.907 19.5015 61.9656 19.4673C62.0242 19.4331 62.0756 19.3834 62.1159 19.3219C62.8267 18.2719 63.6641 17.3559 64.6004 16.6043C65.0796 16.2168 65.5789 15.868 66.0178 15.5579C66.4567 15.2479 66.948 14.8652 67.3789 14.5503C69.0621 13.3441 69.5211 11.1593 69.6419 10.1905C69.6589 10.0659 69.7118 9.9525 69.7913 9.87014C69.8708 9.78777 69.9719 9.74168 70.0768 9.73994H72.2271Z" fill="#3A3845"/>
<path d="M95.4617 19.9153C95.4617 25.5215 91.0188 30.0908 85.554 30.0908C80.0893 30.0908 75.6464 25.5264 75.6464 19.9153C75.6464 14.3043 80.0893 9.73989 85.554 9.73989C91.0188 9.73989 95.4617 14.3043 95.4617 19.9153ZM85.554 13.437C81.81 13.437 78.765 16.3442 78.765 19.9153C78.765 23.4864 81.81 26.3695 85.554 26.3695C89.298 26.3695 92.3471 23.4622 92.3471 19.8959C92.3471 16.3297 89.298 13.437 85.554 13.437Z" fill="#3A3845"/>
<path d="M118.249 19.9153C118.249 25.5215 113.584 30.0908 107.846 30.0908C102.108 30.0908 97.4432 25.5264 97.4432 19.9153C97.4432 14.3043 102.108 9.73989 107.846 9.73989C113.584 9.73989 118.249 14.3043 118.249 19.9153ZM107.846 13.437C103.915 13.437 100.714 16.3442 100.714 19.9153C100.714 23.4864 103.915 26.3695 107.846 26.3695C111.777 26.3695 114.975 23.4622 114.975 19.8959C114.975 16.3297 111.765 13.437 107.846 13.437Z" fill="#3A3845"/>
<path d="M135.979 19.7651V10.2729C135.979 10.2029 135.99 10.1336 136.013 10.0689C136.035 10.0043 136.068 9.9455 136.109 9.896C136.15 9.84651 136.199 9.80725 136.253 9.78046C136.307 9.75368 136.365 9.73989 136.423 9.73989H138.611C138.67 9.73989 138.727 9.75368 138.781 9.78046C138.835 9.80725 138.884 9.84651 138.925 9.896C138.967 9.9455 138.999 10.0043 139.022 10.0689C139.044 10.1336 139.055 10.2029 139.055 10.2729V29.5578C139.055 29.6278 139.044 29.6971 139.022 29.7617C138.999 29.8264 138.967 29.8852 138.925 29.9347C138.884 29.9841 138.835 30.0234 138.781 30.0502C138.727 30.077 138.67 30.0908 138.611 30.0908H136.443C136.385 30.0908 136.327 30.077 136.273 30.0502C136.219 30.0234 136.17 29.9841 136.129 29.9347C136.088 29.8852 136.055 29.8264 136.033 29.7617C136.01 29.6971 135.999 29.6278 135.999 29.5578V28.0411C136.001 27.5664 135.913 27.0973 135.741 26.6699C135.099 25.1096 133.439 22.2218 129.563 20.4532C127.926 19.727 126.392 18.7005 125.017 17.4102C124.952 17.3465 124.873 17.3064 124.79 17.2945C124.707 17.2827 124.622 17.2997 124.547 17.3435C124.471 17.3873 124.408 17.456 124.364 17.5417C124.32 17.6273 124.297 17.7263 124.298 17.8269V29.5578C124.298 29.6991 124.251 29.8347 124.168 29.9347C124.085 30.0346 123.972 30.0908 123.854 30.0908H121.666C121.548 30.0908 121.435 30.0346 121.352 29.9347C121.268 29.8347 121.222 29.6991 121.222 29.5578V10.2729C121.222 10.1315 121.268 9.99596 121.352 9.896C121.435 9.79605 121.548 9.73989 121.666 9.73989H123.794C123.882 9.742 123.968 9.77594 124.04 9.83729C124.112 9.89865 124.167 9.98458 124.197 10.0839C124.549 11.2274 126.01 14.9294 130.633 16.9935C132.306 17.7278 133.862 18.8013 135.232 20.1673C135.296 20.2341 135.375 20.2774 135.459 20.2919C135.544 20.3064 135.629 20.2916 135.707 20.2493C135.784 20.2069 135.85 20.1388 135.896 20.0529C135.942 19.9671 135.967 19.8672 135.967 19.7651H135.979Z" fill="#3A3845"/>
<path d="M142.028 28.0557C142.028 27.653 142.115 27.2594 142.278 26.9246C142.442 26.5898 142.674 26.329 142.946 26.1751C143.218 26.0212 143.517 25.9812 143.805 26.0601C144.094 26.1391 144.358 26.3334 144.566 26.6185C144.774 26.9036 144.915 27.2667 144.972 27.6618C145.029 28.0569 144.999 28.4662 144.886 28.838C144.773 29.2098 144.582 29.5273 144.337 29.7503C144.092 29.9733 143.804 30.0918 143.51 30.0908C143.315 30.0908 143.122 30.0382 142.942 29.9358C142.762 29.8335 142.598 29.6835 142.461 29.4945C142.323 29.3054 142.214 29.081 142.14 28.8342C142.065 28.5873 142.027 28.3228 142.028 28.0557Z" fill="#3A3845"/>
</svg>
