<svg width="532" height="136" viewBox="0 0 532 136" fill="none" xmlns="http://www.w3.org/2000/svg">
<mask id="path-1-inside-1_469_2636" fill="white">
<path d="M19.5657 68.9233C19.1687 68.5394 19.1687 67.9169 19.5657 67.533L39.6205 48.1372C42.0025 45.8335 45.8644 45.8335 48.2463 48.1372L68.3011 67.533C68.6981 67.9169 68.6981 68.5394 68.3011 68.9233L48.2463 88.3191C45.8644 90.6228 42.0025 90.6228 39.6205 88.3191L19.5657 68.9233Z"/>
</mask>
<path d="M19.5657 68.9233C19.1687 68.5394 19.1687 67.9169 19.5657 67.533L39.6205 48.1372C42.0025 45.8335 45.8644 45.8335 48.2463 48.1372L68.3011 67.533C68.6981 67.9169 68.6981 68.5394 68.3011 68.9233L48.2463 88.3191C45.8644 90.6228 42.0025 90.6228 39.6205 88.3191L19.5657 68.9233Z" stroke="#CAC9CF" stroke-width="5" mask="url(#path-1-inside-1_469_2636)"/>
<mask id="path-2-inside-2_469_2636" fill="white">
<path d="M78.5924 68.9233C78.1954 68.5394 78.1954 67.9169 78.5924 67.533L98.6471 48.1372C101.029 45.8335 104.891 45.8335 107.273 48.1372L127.328 67.533C127.725 67.9169 127.725 68.5394 127.328 68.9233L107.273 88.3191C104.891 90.6228 101.029 90.6228 98.6471 88.3191L78.5924 68.9233Z"/>
</mask>
<path d="M78.5924 68.9233C78.1954 68.5394 78.1954 67.9169 78.5924 67.533L98.6471 48.1372C101.029 45.8335 104.891 45.8335 107.273 48.1372L127.328 67.533C127.725 67.9169 127.725 68.5394 127.328 68.9233L107.273 88.3191C104.891 90.6228 101.029 90.6228 98.6471 88.3191L78.5924 68.9233Z" stroke="#CAC9CF" stroke-width="5" mask="url(#path-2-inside-2_469_2636)"/>
<mask id="path-3-inside-3_469_2636" fill="white">
<path d="M72.7277 16.1177C73.1247 15.7338 73.7684 15.7338 74.1654 16.1177L94.2201 35.5135C96.6021 37.8172 96.6021 41.5522 94.2201 43.8558L74.1653 63.2516C73.7684 63.6355 73.1247 63.6355 72.7277 63.2516L52.673 43.8558C50.291 41.5522 50.291 37.8172 52.673 35.5135L72.7277 16.1177Z"/>
</mask>
<path d="M72.7277 16.1177C73.1247 15.7338 73.7684 15.7338 74.1654 16.1177L94.2201 35.5135C96.6021 37.8172 96.6021 41.5522 94.2201 43.8558L74.1653 63.2516C73.7684 63.6355 73.1247 63.6355 72.7277 63.2516L52.673 43.8558C50.291 41.5522 50.291 37.8172 52.673 35.5135L72.7277 16.1177Z" stroke="#CAC9CF" stroke-width="5" mask="url(#path-3-inside-3_469_2636)"/>
<mask id="path-4-inside-4_469_2636" fill="white">
<path d="M72.34 70.369C72.737 69.9851 73.3807 69.9851 73.7777 70.369L93.8324 89.7648C96.2144 92.0684 96.2144 95.8034 93.8324 98.1071L73.7777 117.503C73.3807 117.887 72.737 117.887 72.34 117.503L52.2853 98.1071C49.9033 95.8034 49.9033 92.0684 52.2853 89.7648L72.34 70.369Z"/>
</mask>
<path d="M72.34 70.369C72.737 69.9851 73.3807 69.9851 73.7777 70.369L93.8324 89.7648C96.2144 92.0684 96.2144 95.8034 93.8324 98.1071L73.7777 117.503C73.3807 117.887 72.737 117.887 72.34 117.503L52.2853 98.1071C49.9033 95.8034 49.9033 92.0684 52.2853 89.7648L72.34 70.369Z" stroke="#CAC9CF" stroke-width="5" mask="url(#path-4-inside-4_469_2636)"/>
<path d="M86.8584 1.43164C90.9759 1.10099 94.8119 1.11868 98.457 2.37109C101.268 3.33705 103.18 5.50469 105.162 8.13965C107.076 10.684 109.098 13.7515 112.039 15.7568C115.479 18.1018 120.074 19.6714 123.964 21.2695C125.953 22.0867 127.783 22.9158 129.32 23.8711C130.857 24.8264 132.032 25.8666 132.777 27.0703C134.408 29.7047 135.16 32.8627 135.799 36.4639C136.426 40.0022 136.945 43.9908 138.179 47.9297C139.241 51.3237 141.477 54.8458 143.284 58.1416C145.153 61.5511 146.619 64.7949 146.619 68C146.619 71.1609 145.189 73.8289 143.335 76.6582C141.538 79.3997 139.26 82.3852 138.179 85.8379C136.931 89.8238 136.727 94.295 136.259 98.2549C135.778 102.321 135.021 105.952 132.843 108.835C130.679 111.699 127.321 113.527 123.479 115.231C119.738 116.89 115.46 118.455 112.039 120.787C109.114 122.781 107.096 125.692 105.182 128.106C103.209 130.594 101.292 132.655 98.457 133.629C94.8119 134.881 90.9759 134.899 86.8584 134.568C82.8236 134.244 78.3688 133.561 73.9346 133.561C69.5004 133.561 65.0455 134.244 61.0107 134.568C56.8935 134.899 53.058 134.881 49.4131 133.629C46.0624 132.478 43.4565 130.457 40.8945 128.103C38.3839 125.795 35.8042 123.044 32.748 120.811C29.7807 118.642 26.2051 116.916 23.0654 115.148C19.8493 113.337 16.9932 111.439 15.0264 108.835C12.8091 105.899 11.7163 102.207 10.8857 98.1504C10.0753 94.1921 9.50032 89.7534 8.27441 85.8379C7.21493 82.4542 5.34118 79.4979 3.88477 76.7568C2.39516 73.9533 1.25 71.2409 1.25 68C1.25 64.7949 2.71593 61.5511 4.58496 58.1416C6.39175 54.8457 8.62872 51.3237 9.69141 47.9297C10.9348 43.9583 11.1425 40.0554 11.6084 36.6523C12.0824 33.1901 12.826 30.0783 15.0264 27.165C16.9792 24.5796 19.8137 22.819 23.0303 21.1426C26.1683 19.5071 29.7587 17.9182 32.748 15.7334C35.8239 13.4854 38.4041 10.5881 40.9189 8.14551C43.4885 5.64983 46.0856 3.51434 49.4131 2.37109C53.058 1.11885 56.8935 1.10102 61.0107 1.43164C65.0455 1.75564 69.5004 2.43944 73.9346 2.43945C78.3688 2.43945 82.8236 1.75565 86.8584 1.43164Z" stroke="#CAC9CF" stroke-width="2.5"/>
<path d="M264.999 31.5935C265.431 31.5935 265.846 31.7921 266.153 32.1463C266.461 32.5004 266.635 32.9813 266.639 33.4843V101.899C266.639 102.402 266.468 102.884 266.164 103.242C265.86 103.599 265.446 103.802 265.014 103.807H257.006C256.574 103.802 256.161 103.599 255.856 103.242C255.552 102.884 255.381 102.402 255.381 101.899V57.3949C254.751 57.9908 254.101 58.5638 253.431 59.1139C251.525 60.6609 249.59 61.9674 247.713 63.2394C245.837 64.5114 244.596 65.5084 243.119 66.5226C240.353 68.3813 237.945 70.8814 236.044 73.8679C234.143 76.8545 232.789 80.2637 232.068 83.884C231.987 84.3053 231.784 84.6817 231.494 84.9506C231.204 85.2196 230.843 85.3648 230.472 85.3623H222.834C222.463 85.3648 222.102 85.2196 221.812 84.9506C221.522 84.6817 221.319 84.3053 221.238 83.884C220.517 80.2591 219.162 76.8457 217.259 73.8559C215.355 70.8662 212.943 68.3642 210.173 66.5054C208.695 65.4912 207.218 64.3739 205.578 63.2222C203.938 62.0705 201.766 60.6438 199.86 59.0967C199.19 58.5581 198.54 57.9851 197.91 57.3778V101.899C197.91 102.402 197.739 102.884 197.435 103.242C197.131 103.599 196.717 103.802 196.285 103.807H188.292C187.86 103.802 187.446 103.599 187.142 103.242C186.838 102.884 186.667 102.402 186.667 101.899V33.5015C186.667 32.9955 186.84 32.5102 187.147 32.1524C187.455 31.7945 187.872 31.5935 188.307 31.5935H196.211C196.596 31.5997 196.967 31.7632 197.258 32.0555C197.55 32.3478 197.744 32.7501 197.807 33.1921C198.25 36.5269 199.934 44.3137 206.095 48.6627C207.72 49.78 209.33 51.0348 211.103 52.2553C212.876 53.4757 214.605 54.5931 216.289 55.9682C219.728 58.6286 222.806 61.8733 225.419 65.5943C225.567 65.8125 225.756 65.9888 225.971 66.1101C226.186 66.2313 226.422 66.2943 226.66 66.2943C226.899 66.2943 227.135 66.2313 227.35 66.1101C227.565 65.9888 227.753 65.8125 227.901 65.5943C230.509 61.8685 233.582 58.618 237.017 55.951C238.775 54.5759 240.607 53.3382 242.217 52.2381C243.828 51.138 245.63 49.78 247.211 48.6627C253.387 44.3825 255.071 36.63 255.514 33.1921C255.577 32.7501 255.771 32.3478 256.062 32.0555C256.354 31.7632 256.725 31.5997 257.11 31.5935H264.999Z" fill="#CAC9CF"/>
<path d="M350.247 67.6997C350.247 87.5927 333.946 103.806 313.896 103.806C293.846 103.806 277.545 87.6099 277.545 67.6997C277.545 47.7895 293.846 31.5931 313.896 31.5931C333.946 31.5931 350.247 47.7895 350.247 67.6997ZM313.896 44.7119C300.159 44.7119 288.987 55.028 288.987 67.6997C288.987 80.3714 300.159 90.6016 313.896 90.6016C327.632 90.6016 338.82 80.2854 338.82 67.6309C338.82 54.9764 327.632 44.7119 313.896 44.7119Z" fill="#CAC9CF"/>
<path d="M433.853 67.6997C433.853 87.5927 416.737 103.806 395.685 103.806C374.632 103.806 357.516 87.6099 357.516 67.6997C357.516 47.7895 374.632 31.5931 395.685 31.5931C416.737 31.5931 433.853 47.7895 433.853 67.6997ZM395.685 44.7119C381.261 44.7119 369.515 55.028 369.515 67.6997C369.515 80.3714 381.261 90.6016 395.685 90.6016C410.108 90.6016 421.839 80.2854 421.839 67.6309C421.839 54.9764 410.061 44.7119 395.685 44.7119Z" fill="#CAC9CF"/>
<path d="M498.902 67.1667V33.4844C498.902 33.2361 498.945 32.9901 499.026 32.7607C499.108 32.5312 499.228 32.3227 499.38 32.1471C499.531 31.9715 499.711 31.8322 499.908 31.7371C500.106 31.6421 500.318 31.5931 500.532 31.5931H508.561C508.775 31.5931 508.987 31.6421 509.184 31.7371C509.382 31.8322 509.562 31.9715 509.713 32.1471C509.864 32.3227 509.984 32.5312 510.066 32.7607C510.148 32.9901 510.19 33.2361 510.19 33.4844V101.915C510.19 102.163 510.148 102.409 510.066 102.639C509.984 102.868 509.864 103.077 509.713 103.252C509.562 103.428 509.382 103.567 509.184 103.662C508.987 103.757 508.775 103.806 508.561 103.806H500.606C500.392 103.806 500.18 103.757 499.982 103.662C499.785 103.567 499.605 103.428 499.454 103.252C499.302 103.077 499.182 102.868 499.1 102.639C499.019 102.409 498.976 102.163 498.976 101.915V96.5333C498.984 94.8487 498.66 93.1843 498.028 91.6676C495.673 86.1312 489.585 75.8838 475.364 69.6082C469.356 67.0314 463.729 63.3889 458.683 58.8106C458.445 58.5845 458.156 58.4421 457.851 58.4001C457.545 58.3581 457.236 58.4184 456.959 58.5738C456.682 58.7291 456.449 58.9731 456.287 59.2771C456.125 59.581 456.042 59.9322 456.047 60.2892V101.915C456.047 102.417 455.875 102.898 455.569 103.252C455.264 103.607 454.849 103.806 454.417 103.806H446.388C445.956 103.806 445.542 103.607 445.236 103.252C444.93 102.898 444.759 102.417 444.759 101.915V33.4844C444.759 32.9828 444.93 32.5018 445.236 32.1471C445.542 31.7924 445.956 31.5931 446.388 31.5931H454.195C454.519 31.6006 454.833 31.721 455.098 31.9388C455.362 32.1565 455.563 32.4614 455.676 32.8139C456.965 36.8716 462.328 50.0075 479.289 57.332C485.427 59.9373 491.134 63.7466 496.162 68.5938C496.398 68.8309 496.687 68.9843 496.996 69.0359C497.305 69.0875 497.621 69.035 497.905 68.8847C498.189 68.7344 498.429 68.4926 498.598 68.188C498.767 67.8834 498.857 67.5289 498.858 67.1667H498.902Z" fill="#CAC9CF"/>
<path d="M521.095 96.585C521.095 95.156 521.415 93.7591 522.015 92.5712C522.614 91.3833 523.467 90.4577 524.464 89.9117C525.461 89.3657 526.558 89.2237 527.616 89.5038C528.674 89.7838 529.646 90.4733 530.408 91.485C531.17 92.4967 531.688 93.7851 531.897 95.187C532.106 96.589 531.996 98.0415 531.581 99.3607C531.166 100.68 530.466 101.807 529.567 102.598C528.669 103.389 527.613 103.81 526.534 103.806C525.819 103.806 525.11 103.619 524.45 103.256C523.789 102.893 523.189 102.361 522.683 101.69C522.178 101.019 521.778 100.223 521.505 99.3471C521.233 98.4711 521.093 97.5325 521.095 96.585Z" fill="#CAC9CF"/>
</svg>
