<svg width="93" height="24" viewBox="0 0 93 24" fill="none" xmlns="http://www.w3.org/2000/svg">
<path d="M71.2129 6.26031H66.2404C65.9481 6.26031 65.6567 6.55838 65.5097 6.85644L63.4619 19.9722C63.4619 20.2703 63.6089 20.4194 63.9012 20.4194H66.5336C66.8259 20.4194 66.972 20.2703 66.972 19.9722L67.5575 16.2462C67.5575 15.9482 67.8498 15.6501 68.2882 15.6501H69.8958C73.2607 15.6501 75.1606 14.0106 75.599 10.7317C75.8922 9.39028 75.599 8.19792 75.0153 7.45275C74.1375 6.70741 72.8222 6.26031 71.2129 6.26031ZM71.7983 11.1788C71.5052 12.9672 70.189 12.9673 68.8737 12.9673H67.9959L68.5805 9.53931C68.5805 9.39028 68.7267 9.24124 69.019 9.24124H69.3121C70.189 9.24124 71.0667 9.24124 71.5052 9.83738C71.7983 9.98641 71.7983 10.4335 71.7983 11.1788Z" fill="white"/>
<path d="M35.4045 6.2608H30.4338C30.1415 6.2608 29.8483 6.55896 29.7013 6.85703L27.6553 19.9728C27.6553 20.2709 27.8014 20.4199 28.0937 20.4199H30.4338C30.7252 20.4199 31.0184 20.1219 31.1654 19.8238L31.7491 16.2467C31.7491 15.9486 32.0423 15.6505 32.4807 15.6505H34.0892C37.4523 15.6505 39.353 14.0111 39.7924 10.7321C40.0855 9.39068 39.7924 8.19841 39.2078 7.45316C38.33 6.70799 37.16 6.2608 35.4045 6.2608ZM35.9899 11.1792C35.6977 12.9678 34.3823 12.9678 33.0662 12.9678H32.3346L32.9191 9.53971C32.9191 9.39068 33.0662 9.24164 33.3585 9.24164H33.6507C34.5276 9.24164 35.4045 9.24164 35.8447 9.83786C35.9899 9.9869 36.1361 10.434 35.9899 11.1792Z" fill="white"/>
<path d="M50.4757 11.0303H48.1356C47.9895 11.0303 47.6972 11.1794 47.6972 11.3284L47.5502 12.0736L47.404 11.7755C46.8185 11.0303 45.7947 10.7322 44.6255 10.7322C41.994 10.7322 39.653 12.8189 39.2146 15.6506C38.9223 17.1411 39.3608 18.4824 40.0915 19.3767C40.824 20.2709 41.847 20.569 43.1632 20.569C45.3562 20.569 46.5263 19.2277 46.5263 19.2277L46.3801 19.9729C46.3801 20.2709 46.5263 20.42 46.8186 20.42H49.0125C49.3048 20.42 49.5971 20.1219 49.7432 19.8238L51.0594 11.4774C50.9141 11.3284 50.621 11.0303 50.4757 11.0303ZM47.1117 15.7997C46.8185 17.141 45.7947 18.1844 44.3323 18.1844C43.6016 18.1844 43.017 17.8863 42.7247 17.5882C42.4324 17.141 42.2863 16.5449 42.2863 15.7997C42.4324 14.4584 43.6016 13.415 44.9178 13.415C45.6494 13.415 46.0878 13.7131 46.5263 14.0112C46.9656 14.4584 47.1117 15.2035 47.1117 15.7997Z" fill="white"/>
<path d="M86.138 11.032H83.7988C83.6526 11.032 83.3595 11.181 83.3595 11.3301L83.2142 12.0754L83.0681 11.7774C82.4826 11.032 81.4587 10.7339 80.2896 10.7339C77.6563 10.7339 75.3171 12.8206 74.8787 15.6524C74.5864 17.1428 75.0248 18.4842 75.7555 19.3784C76.4871 20.2728 77.511 20.5708 78.8272 20.5708C81.0203 20.5708 82.1903 19.2294 82.1903 19.2294L82.0442 19.9747C82.0442 20.2728 82.1903 20.4218 82.4826 20.4218H84.6757C84.9688 20.4218 85.2611 20.1237 85.4073 19.8257L86.7234 11.4793C86.5764 11.3301 86.4312 11.032 86.138 11.032ZM82.7758 15.8014C82.4826 17.1428 81.4587 18.1861 79.9964 18.1861C79.2656 18.1861 78.6802 17.888 78.3888 17.5899C78.0956 17.1428 77.9495 16.5467 77.9495 15.8014C78.0956 14.46 79.2657 13.4168 80.5818 13.4168C81.3134 13.4168 81.7519 13.7149 82.1903 14.0129C82.7758 14.46 82.921 15.2053 82.7758 15.8014Z" fill="white"/>
<path d="M63.1695 11.0333H60.6833C60.391 11.0333 60.2448 11.1823 60.0996 11.3313L56.8817 16.3988L55.4185 11.6294C55.2733 11.3313 55.1271 11.1823 54.6878 11.1823H52.3486C52.0554 11.1823 51.9102 11.4804 51.9102 11.7784L54.5417 19.6777L52.0554 23.2547C51.9102 23.5529 52.0554 24 52.3486 24H54.6878C54.9801 24 55.1271 23.851 55.2733 23.702L63.3165 11.9275C63.755 11.4804 63.4618 11.0333 63.1695 11.0333Z" fill="white"/>
<path d="M88.9102 6.70755L86.8633 20.1214C86.8633 20.4195 87.0094 20.5685 87.3017 20.5685H89.3486C89.6409 20.5685 89.9341 20.2705 90.0802 19.9724L92.1271 6.85658C92.1271 6.55852 91.981 6.40948 91.6887 6.40948H89.3486C89.2025 6.26045 89.0572 6.40948 88.9102 6.70755Z" fill="white"/>
<path d="M16.8173 1.78849C15.7934 0.596132 13.8926 0 11.2593 0H3.94856C3.51013 0 3.07082 0.447098 2.92467 0.894197L0 20.4189C0 20.866 0.293166 21.164 0.584582 21.164H5.1186L6.28777 13.8609V14.159C6.43479 13.7119 6.87323 13.2648 7.31167 13.2648H9.50472C13.7456 13.2648 16.9625 11.4763 17.9864 6.55781C17.9864 6.40878 17.9864 6.25975 17.9864 6.11071C17.8411 6.11071 17.8411 6.11071 17.9864 6.11071C18.1326 4.17311 17.8411 2.98084 16.8173 1.78849Z" fill="white"/>
<path d="M17.8378 6.11243C17.8378 6.26146 17.8378 6.41049 17.8378 6.55953C16.8157 11.627 13.5979 13.2665 9.35702 13.2665H7.16396C6.72465 13.2665 6.2862 13.7136 6.14006 14.1608L4.67773 23.2523C4.67773 23.5504 4.82388 23.8484 5.26232 23.8484H9.06473C9.50317 23.8484 9.9416 23.5504 9.9416 23.1033V22.9542L10.6723 18.3339V18.0358C10.6723 17.5887 11.1125 17.2905 11.551 17.2905H12.1347C15.7918 17.2905 18.7156 15.8002 19.4472 11.3289C19.7395 9.54037 19.5925 7.90092 18.7156 6.85759C18.5694 6.55953 18.2771 6.26146 17.8378 6.11243Z" fill="white"/>
<path d="M16.8256 5.66591C16.6803 5.66591 16.5342 5.51688 16.3872 5.51688C16.2419 5.51688 16.0949 5.51688 15.9487 5.36784C15.3633 5.21881 14.7795 5.21881 14.0479 5.21881H8.34477C8.19862 5.21881 8.05248 5.21881 7.90546 5.36784C7.61404 5.51688 7.46703 5.81503 7.46703 6.1131L6.29785 13.8634V14.1614C6.44312 13.7142 6.88332 13.2671 7.32176 13.2671H9.51481C13.7557 13.2671 16.9726 11.4786 17.9965 6.5602C17.9965 6.41117 17.9965 6.26213 18.1426 6.1131C17.8495 5.96407 17.7042 5.81503 17.411 5.81503C16.9726 5.66591 16.9726 5.66591 16.8256 5.66591Z" fill="white"/>
</svg>
