<svg width="85" height="12" viewBox="0 0 85 12" fill="none" xmlns="http://www.w3.org/2000/svg">
<path d="M12 4.89898C11.9941 5.03418 11.9194 5.18858 11.7744 5.31052C11.194 5.79827 10.6133 6.28556 10.0323 6.7724C9.76099 7.00012 9.48934 7.22748 9.21731 7.45449C9.17844 7.48681 9.16856 7.51546 9.18051 7.56561C9.38933 8.43858 9.59646 9.31191 9.80189 10.1856C9.84347 10.3612 9.88442 10.5371 9.92935 10.7121C9.99483 10.9712 9.91119 11.2273 9.70008 11.3722C9.46778 11.5316 9.22114 11.542 8.97561 11.4027C8.19352 10.9579 7.41244 10.5114 6.63237 10.063C6.45026 9.95894 6.26592 9.85728 6.08683 9.74936C6.02693 9.71324 5.98343 9.71293 5.92193 9.7483C4.97329 10.2931 4.02258 10.8345 3.07505 11.3791C2.87382 11.4946 2.66829 11.538 2.44587 11.4507C2.15159 11.3352 1.99784 11.0392 2.07097 10.7316C2.27777 9.86094 2.4849 8.9903 2.69235 8.11966C2.736 7.93676 2.77504 7.75248 2.82236 7.57094C2.83606 7.51851 2.8265 7.48757 2.78492 7.45297C2.42845 7.15635 2.07288 6.85872 1.71821 6.56008C1.22127 6.14275 0.722413 5.72831 0.228336 5.30793C0.026627 5.13661 -0.0498505 4.91788 0.0328408 4.66775C0.115532 4.41763 0.300353 4.26704 0.575991 4.2399C1.06449 4.19204 1.55379 4.15196 2.04277 4.10913C2.52649 4.06675 3.01021 4.02468 3.49393 3.98292C3.65517 3.96905 3.81641 3.9535 3.97781 3.94177C4.02975 3.93811 4.05747 3.91631 4.07691 3.87104C4.51506 2.88609 4.95396 1.90154 5.3936 0.917403C5.515 0.645329 5.73185 0.493364 6.00749 0.500223C6.28313 0.507082 6.48197 0.635878 6.59127 0.878078C6.88873 1.537 7.18237 2.19745 7.47729 2.85759C7.62738 3.19292 7.77778 3.52916 7.92532 3.86601C7.94795 3.91784 7.98029 3.93796 8.03685 3.94222C8.42561 3.97372 8.81427 4.00675 9.20281 4.0413C9.76854 4.09048 10.3342 4.14007 10.8998 4.19006C11.0795 4.20531 11.2594 4.22055 11.4387 4.23975C11.7647 4.27664 12.0025 4.53682 12 4.89898Z" fill="#C69B7B"/>
<path d="M30 4.89898C29.9941 5.03418 29.9194 5.18858 29.7744 5.31052C29.194 5.79827 28.6133 6.28556 28.0323 6.7724C27.761 7.00012 27.4893 7.22748 27.2173 7.45449C27.1784 7.48681 27.1686 7.51546 27.1805 7.56561C27.3893 8.43858 27.5965 9.31191 27.8019 10.1856C27.8435 10.3612 27.8844 10.5371 27.9294 10.7121C27.9948 10.9712 27.9112 11.2273 27.7001 11.3722C27.4678 11.5316 27.2211 11.542 26.9756 11.4027C26.1935 10.9579 25.4124 10.5114 24.6324 10.063C24.4503 9.95894 24.2659 9.85728 24.0868 9.74936C24.0269 9.71324 23.9834 9.71293 23.9219 9.7483C22.9733 10.2931 22.0226 10.8345 21.0751 11.3791C20.8738 11.4946 20.6683 11.538 20.4459 11.4507C20.1516 11.3352 19.9978 11.0392 20.071 10.7316C20.2778 9.86094 20.4849 8.9903 20.6923 8.11966C20.736 7.93676 20.775 7.75248 20.8224 7.57094C20.8361 7.51851 20.8265 7.48757 20.7849 7.45297C20.4284 7.15635 20.0729 6.85872 19.7182 6.56008C19.2213 6.14275 18.7224 5.72831 18.2283 5.30793C18.0266 5.13661 17.9501 4.91788 18.0328 4.66775C18.1155 4.41763 18.3004 4.26704 18.576 4.2399C19.0645 4.19204 19.5538 4.15196 20.0428 4.10913C20.5265 4.06675 21.0102 4.02468 21.4939 3.98292C21.6552 3.96905 21.8164 3.9535 21.9778 3.94177C22.0297 3.93811 22.0575 3.91631 22.0769 3.87104C22.5151 2.88609 22.954 1.90154 23.3936 0.917403C23.515 0.645329 23.7319 0.493364 24.0075 0.500223C24.2831 0.507082 24.482 0.635878 24.5913 0.878078C24.8887 1.537 25.1824 2.19745 25.4773 2.85759C25.6274 3.19292 25.7778 3.52916 25.9253 3.86601C25.9479 3.91784 25.9803 3.93796 26.0369 3.94222C26.4256 3.97372 26.8143 4.00675 27.2028 4.0413C27.7685 4.09048 28.3342 4.14007 28.8998 4.19006C29.0795 4.20531 29.2594 4.22055 29.4387 4.23975C29.7647 4.27664 30.0025 4.53682 30 4.89898Z" fill="#C69B7B"/>
<path d="M48 4.89898C47.9941 5.03418 47.9194 5.18858 47.7744 5.31052C47.194 5.79827 46.6133 6.28556 46.0323 6.7724C45.761 7.00012 45.4893 7.22748 45.2173 7.45449C45.1784 7.48681 45.1686 7.51546 45.1805 7.56561C45.3893 8.43858 45.5965 9.31191 45.8019 10.1856C45.8435 10.3612 45.8844 10.5371 45.9294 10.7121C45.9948 10.9712 45.9112 11.2273 45.7001 11.3722C45.4678 11.5316 45.2211 11.542 44.9756 11.4027C44.1935 10.9579 43.4124 10.5114 42.6324 10.063C42.4503 9.95894 42.2659 9.85728 42.0868 9.74936C42.0269 9.71324 41.9834 9.71293 41.9219 9.7483C40.9733 10.2931 40.0226 10.8345 39.0751 11.3791C38.8738 11.4946 38.6683 11.538 38.4459 11.4507C38.1516 11.3352 37.9978 11.0392 38.071 10.7316C38.2778 9.86094 38.4849 8.9903 38.6923 8.11966C38.736 7.93676 38.775 7.75248 38.8224 7.57094C38.8361 7.51851 38.8265 7.48757 38.7849 7.45297C38.4284 7.15635 38.0729 6.85872 37.7182 6.56008C37.2213 6.14275 36.7224 5.72831 36.2283 5.30793C36.0266 5.13661 35.9501 4.91788 36.0328 4.66775C36.1155 4.41763 36.3004 4.26704 36.576 4.2399C37.0645 4.19204 37.5538 4.15196 38.0428 4.10913C38.5265 4.06675 39.0102 4.02468 39.4939 3.98292C39.6552 3.96905 39.8164 3.9535 39.9778 3.94177C40.0297 3.93811 40.0575 3.91631 40.0769 3.87104C40.5151 2.88609 40.954 1.90154 41.3936 0.917403C41.515 0.645329 41.7319 0.493364 42.0075 0.500223C42.2831 0.507082 42.482 0.635878 42.5913 0.878078C42.8887 1.537 43.1824 2.19745 43.4773 2.85759C43.6274 3.19292 43.7778 3.52916 43.9253 3.86601C43.9479 3.91784 43.9803 3.93796 44.0369 3.94222C44.4256 3.97372 44.8143 4.00675 45.2028 4.0413C45.7685 4.09048 46.3342 4.14007 46.8998 4.19006C47.0795 4.20531 47.2594 4.22055 47.4387 4.23975C47.7647 4.27664 48.0025 4.53682 48 4.89898Z" fill="#C69B7B"/>
<path d="M66 4.89898C65.9941 5.03418 65.9194 5.18858 65.7744 5.31052C65.194 5.79827 64.6133 6.28556 64.0323 6.7724C63.761 7.00012 63.4893 7.22748 63.2173 7.45449C63.1784 7.48681 63.1686 7.51546 63.1805 7.56561C63.3893 8.43858 63.5965 9.31191 63.8019 10.1856C63.8435 10.3612 63.8844 10.5371 63.9294 10.7121C63.9948 10.9712 63.9112 11.2273 63.7001 11.3722C63.4678 11.5316 63.2211 11.542 62.9756 11.4027C62.1935 10.9579 61.4124 10.5114 60.6324 10.063C60.4503 9.95894 60.2659 9.85728 60.0868 9.74936C60.0269 9.71324 59.9834 9.71293 59.9219 9.7483C58.9733 10.2931 58.0226 10.8345 57.0751 11.3791C56.8738 11.4946 56.6683 11.538 56.4459 11.4507C56.1516 11.3352 55.9978 11.0392 56.071 10.7316C56.2778 9.86094 56.4849 8.9903 56.6923 8.11966C56.736 7.93676 56.775 7.75248 56.8224 7.57094C56.8361 7.51851 56.8265 7.48757 56.7849 7.45297C56.4284 7.15635 56.0729 6.85872 55.7182 6.56008C55.2213 6.14275 54.7224 5.72831 54.2283 5.30793C54.0266 5.13661 53.9501 4.91788 54.0328 4.66775C54.1155 4.41763 54.3004 4.26704 54.576 4.2399C55.0645 4.19204 55.5538 4.15196 56.0428 4.10913C56.5265 4.06675 57.0102 4.02468 57.4939 3.98292C57.6552 3.96905 57.8164 3.9535 57.9778 3.94177C58.0297 3.93811 58.0575 3.91631 58.0769 3.87104C58.5151 2.88609 58.954 1.90154 59.3936 0.917403C59.515 0.645329 59.7319 0.493364 60.0075 0.500223C60.2831 0.507082 60.482 0.635878 60.5913 0.878078C60.8887 1.537 61.1824 2.19745 61.4773 2.85759C61.6274 3.19292 61.7778 3.52916 61.9253 3.86601C61.9479 3.91784 61.9803 3.93796 62.0369 3.94222C62.4256 3.97372 62.8143 4.00675 63.2028 4.0413C63.7685 4.09048 64.3342 4.14007 64.8998 4.19006C65.0795 4.20531 65.2594 4.22055 65.4387 4.23975C65.7647 4.27664 66.0025 4.53682 66 4.89898Z" fill="#C69B7B"/>
<path d="M84 4.89898C83.9941 5.03418 83.9194 5.18858 83.7744 5.31052C83.194 5.79827 82.6133 6.28556 82.0323 6.7724C81.761 7.00012 81.4893 7.22748 81.2173 7.45449C81.1784 7.48681 81.1686 7.51546 81.1805 7.56561C81.3893 8.43858 81.5965 9.31191 81.8019 10.1856C81.8435 10.3612 81.8844 10.5371 81.9294 10.7121C81.9948 10.9712 81.9112 11.2273 81.7001 11.3722C81.4678 11.5316 81.2211 11.542 80.9756 11.4027C80.1935 10.9579 79.4124 10.5114 78.6324 10.063C78.4503 9.95894 78.2659 9.85728 78.0868 9.74936C78.0269 9.71324 77.9834 9.71293 77.9219 9.7483C76.9733 10.2931 76.0226 10.8345 75.0751 11.3791C74.8738 11.4946 74.6683 11.538 74.4459 11.4507C74.1516 11.3352 73.9978 11.0392 74.071 10.7316C74.2778 9.86094 74.4849 8.9903 74.6923 8.11966C74.736 7.93676 74.775 7.75248 74.8224 7.57094C74.8361 7.51851 74.8265 7.48757 74.7849 7.45297C74.4284 7.15635 74.0729 6.85872 73.7182 6.56008C73.2213 6.14275 72.7224 5.72831 72.2283 5.30793C72.0266 5.13661 71.9501 4.91788 72.0328 4.66775C72.1155 4.41763 72.3004 4.26704 72.576 4.2399C73.0645 4.19204 73.5538 4.15196 74.0428 4.10913C74.5265 4.06675 75.0102 4.02468 75.4939 3.98292C75.6552 3.96905 75.8164 3.9535 75.9778 3.94177C76.0297 3.93811 76.0575 3.91631 76.0769 3.87104C76.5151 2.88609 76.954 1.90154 77.3936 0.917403C77.515 0.645329 77.7319 0.493364 78.0075 0.500223C78.2831 0.507082 78.482 0.635878 78.5913 0.878078C78.8887 1.537 79.1824 2.19745 79.4773 2.85759C79.6274 3.19292 79.7778 3.52916 79.9253 3.86601C79.9479 3.91784 79.9803 3.93796 80.0369 3.94222C80.4256 3.97372 80.8143 4.00675 81.2028 4.0413C81.7685 4.09048 82.3342 4.14007 82.8998 4.19006C83.0795 4.20531 83.2594 4.22055 83.4387 4.23975C83.7647 4.27664 84.0025 4.53682 84 4.89898Z" stroke="#C69B7B" stroke-linecap="round" stroke-linejoin="round"/>
</svg>
