<svg width="12" height="10" viewBox="0 0 12 10" fill="none" xmlns="http://www.w3.org/2000/svg">
<path d="M8.01803 0.256189V0.254028H8.5807L8.78629 0.29509C8.92336 0.321747 9.04779 0.356682 9.1596 0.399904C9.27142 0.443126 9.37963 0.493556 9.48422 0.551182C9.58882 0.608809 9.68369 0.667526 9.76881 0.727314C9.85321 0.786388 9.92896 0.849061 9.99604 0.915331C10.0624 0.982326 10.1659 0.999615 10.3066 0.967198C10.4473 0.934781 10.5987 0.889754 10.761 0.832128C10.9234 0.774502 11.0839 0.709668 11.2426 0.637627C11.4013 0.565586 11.4979 0.519846 11.5326 0.500396C11.5665 0.480233 11.5845 0.469427 11.5867 0.467979L11.5888 0.464738L11.5996 0.459335L11.6105 0.453932L11.6213 0.448529L11.6321 0.443126L11.6343 0.439885L11.6375 0.437724L11.6408 0.435562L11.6429 0.432321L11.6537 0.429079L11.6646 0.426918L11.6624 0.443126L11.6592 0.459335L11.6537 0.475543L11.6483 0.491752L11.6429 0.502557L11.6375 0.513363L11.6321 0.529571C11.6285 0.540377 11.6249 0.554781 11.6213 0.572794C11.6177 0.590807 11.5834 0.662837 11.5185 0.788906C11.4536 0.914975 11.3724 1.04284 11.275 1.1725C11.1776 1.30217 11.0904 1.40014 11.0132 1.46642C10.9353 1.53341 10.8837 1.58023 10.8584 1.60689C10.8332 1.63426 10.8025 1.65947 10.7665 1.68253L10.7124 1.71819L10.7015 1.72359L10.6907 1.72899L10.6886 1.73224L10.6853 1.7344L10.6821 1.73656L10.6799 1.7398L10.6691 1.7452L10.6583 1.7506L10.6561 1.75385L10.6528 1.75601L10.6496 1.75817L10.6474 1.76141L10.6453 1.76465L10.642 1.76681L10.6388 1.76897L10.6366 1.77222H10.6907L10.9937 1.70738C11.1957 1.66416 11.3886 1.61194 11.5726 1.5507L11.8647 1.45345L11.8972 1.44264L11.9134 1.43724L11.9243 1.43184L11.9351 1.42644L11.9459 1.42103L11.9567 1.41563L11.9784 1.41239L12 1.41023V1.43184L11.9946 1.434L11.9892 1.43724L11.987 1.44048L11.9838 1.44264L11.9805 1.44481L11.9784 1.44805L11.9762 1.45129L11.9729 1.45345L11.9697 1.45561L11.9675 1.45885L11.9654 1.4621L11.9621 1.46426L11.9567 1.47506L11.9513 1.48587L11.9481 1.48803C11.9466 1.49019 11.9008 1.55141 11.8106 1.67172C11.7205 1.79275 11.6718 1.85397 11.6646 1.85542C11.6574 1.85758 11.6472 1.86839 11.6343 1.88784C11.622 1.908 11.5455 1.98833 11.4049 2.1288C11.2642 2.26927 11.1264 2.39425 10.9915 2.50376C10.8559 2.61397 10.7874 2.7494 10.7859 2.91005C10.7838 3.06997 10.7755 3.25079 10.761 3.45249C10.7466 3.6542 10.7196 3.8721 10.6799 4.10623C10.6402 4.34035 10.5789 4.60509 10.4959 4.90044C10.413 5.19579 10.312 5.48394 10.193 5.76489C10.0739 6.04583 9.9495 6.29796 9.81966 6.52128C9.68981 6.7446 9.57078 6.9337 9.46258 7.08857C9.35437 7.24345 9.24437 7.38933 9.13255 7.5262C9.02074 7.66307 8.87936 7.81724 8.7084 7.98868C8.53671 8.15941 8.44294 8.25306 8.42706 8.26963C8.41047 8.28548 8.33978 8.34455 8.21497 8.44684C8.0909 8.54985 7.95744 8.65286 7.81461 8.75588C7.6725 8.85818 7.54193 8.94354 7.4229 9.01197C7.30388 9.0804 7.16033 9.15856 6.99225 9.24645C6.82489 9.33506 6.64382 9.41718 6.44905 9.49282C6.25428 9.56846 6.04869 9.6387 5.83228 9.70353C5.61587 9.76836 5.40668 9.81879 5.20469 9.85481C5.00271 9.89082 4.77367 9.92145 4.51758 9.94666L4.13345 9.98448V9.98988H3.43012V9.98448L3.33814 9.97907C3.27683 9.97547 3.22633 9.97187 3.18665 9.96827C3.14699 9.96467 2.99729 9.94485 2.7376 9.90884C2.47791 9.87282 2.27412 9.8368 2.12624 9.80078C1.97837 9.76476 1.75834 9.69632 1.46619 9.59547C1.17403 9.49463 0.924076 9.39268 0.716321 9.28968C0.509291 9.18738 0.379445 9.12255 0.326781 9.09517C0.274842 9.06852 0.216411 9.03539 0.151488 8.99576L0.0541028 8.93633L0.0519495 8.93309L0.0486925 8.93093L0.0454463 8.92877L0.0432822 8.92553L0.0324617 8.92012L0.0216411 8.91472L0.0194878 8.91148L0.0162308 8.90932L0.0129847 8.90716L0.0108206 8.90392L0.00866727 8.90067L0.00541028 8.89851H0V8.8769L0.0108206 8.87906L0.0216411 8.8823L0.0703336 8.88771C0.102795 8.8913 0.191167 8.89671 0.335437 8.90392C0.479719 8.91112 0.633003 8.91112 0.795311 8.90392C0.957619 8.89671 1.12354 8.8805 1.29306 8.85529C1.46258 8.83008 1.66276 8.78686 1.8936 8.72562C2.12444 8.66439 2.33653 8.59163 2.52986 8.50735C2.72246 8.42235 2.85952 8.35896 2.94104 8.31717C3.02183 8.27611 3.14518 8.19975 3.31109 8.08809L3.55996 7.92061L3.56213 7.91736L3.56537 7.9152L3.56863 7.91304L3.57078 7.9098L3.57295 7.90656L3.57619 7.9044L3.57945 7.90224L3.58161 7.89899L3.59243 7.89575L3.60325 7.89359L3.60541 7.88279L3.60866 7.87198L3.61191 7.86982L3.61407 7.86658L3.5275 7.86117C3.4698 7.85758 3.41389 7.85397 3.35978 7.85037C3.30568 7.84677 3.22092 7.83056 3.1055 7.80174C2.99009 7.77292 2.86565 7.7297 2.73219 7.67208C2.59874 7.61445 2.46889 7.54601 2.34265 7.46677C2.21642 7.38753 2.12516 7.32161 2.06889 7.26903C2.01335 7.21715 1.94121 7.14368 1.85248 7.04859C1.76448 6.95279 1.68801 6.85445 1.62308 6.7536C1.55816 6.65275 1.49613 6.5364 1.43698 6.40458L1.34716 6.20792L1.34175 6.19171L1.33634 6.1755L1.33309 6.16469L1.33093 6.15389L1.34716 6.15605L1.36339 6.15929L1.48242 6.1755C1.56177 6.18631 1.68621 6.1899 1.85573 6.18631C2.02525 6.18271 2.14247 6.1755 2.20739 6.16469C2.27232 6.15389 2.312 6.14668 2.32642 6.14308L2.34806 6.13768L2.37511 6.13228L2.40216 6.12687L2.40433 6.12363L2.40757 6.12147L2.41083 6.11931L2.41298 6.11607L2.39134 6.11067L2.3697 6.10526L2.34806 6.09986L2.32642 6.09446L2.30478 6.08906C2.29036 6.08546 2.26511 6.07825 2.22904 6.06744C2.19297 6.05664 2.09559 6.01701 1.93688 5.94858C1.77819 5.88015 1.65194 5.81351 1.55816 5.74868C1.46415 5.68366 1.3745 5.61255 1.28981 5.53581C1.20541 5.45801 1.11272 5.35787 1.01172 5.23541C0.910734 5.11295 0.820566 4.97067 0.741208 4.80859C0.661861 4.64651 0.602348 4.49163 0.562669 4.34395C0.52315 4.19714 0.497077 4.04704 0.484772 3.89552L0.465284 3.6686L0.476105 3.67076L0.486925 3.674L0.497746 3.67941L0.508566 3.68481L0.519387 3.69021L0.530207 3.69561L0.697926 3.77125C0.809746 3.82168 0.948606 3.8649 1.11452 3.90092C1.28044 3.93694 1.37962 3.95675 1.41208 3.96035L1.46078 3.96575H1.55816L1.55601 3.96251L1.55275 3.96035L1.5495 3.95819L1.54734 3.95495L1.54519 3.95171L1.54193 3.94955L1.53868 3.94738L1.53652 3.94414L1.5257 3.93874L1.51488 3.93334L1.51272 3.9301L1.50947 3.92793L1.50622 3.92577L1.50406 3.92253L1.49324 3.91713L1.48242 3.91173L1.48026 3.90848C1.4781 3.90704 1.44708 3.88399 1.3872 3.83933C1.32804 3.79394 1.26601 3.73524 1.20108 3.6632C1.13616 3.59116 1.07124 3.51552 1.00631 3.43628C0.941269 3.35686 0.883337 3.27189 0.833183 3.18235C0.782694 3.0923 0.729306 2.97775 0.673039 2.83873C0.617497 2.70042 0.575297 2.56102 0.546438 2.42055C0.517591 2.28008 0.50136 2.14141 0.497746 2.00454C0.494142 1.86766 0.497746 1.7506 0.508566 1.65335C0.519387 1.5561 0.541028 1.44624 0.57349 1.32378C0.605951 1.20132 0.652848 1.07166 0.714157 0.934781L0.806132 0.729475L0.811542 0.713267L0.816952 0.697058L0.820209 0.694897L0.822362 0.691655L0.824527 0.688414L0.827773 0.686253L0.83103 0.688414L0.833183 0.691655L0.835347 0.694897L0.838593 0.697058L0.84185 0.699219L0.844004 0.702461L0.846168 0.705703L0.849414 0.707864L0.854824 0.718669L0.860234 0.729475L0.863491 0.731636L0.865645 0.734878L1.01172 0.896962C1.10911 1.00502 1.22453 1.12568 1.35798 1.25895C1.49144 1.39222 1.56538 1.46137 1.5798 1.46642C1.59424 1.47218 1.61226 1.48874 1.6339 1.51612C1.65555 1.54278 1.72769 1.60653 1.85032 1.70738C1.97296 1.80823 2.13346 1.9253 2.33183 2.05856C2.53021 2.19183 2.75023 2.3233 2.99188 2.45297C3.23355 2.58264 3.49324 2.69969 3.77096 2.80415C4.0487 2.90861 4.24347 2.97704 4.35528 3.00946C4.46709 3.04187 4.65825 3.08329 4.92876 3.13372C5.19928 3.18415 5.40307 3.21657 5.54013 3.23097C5.67719 3.24538 5.77097 3.25366 5.82146 3.25583L5.8972 3.25799L5.89505 3.24178L5.89179 3.22557L5.87015 3.0905C5.85573 3.00046 5.84851 2.87439 5.84851 2.7123C5.84851 2.55022 5.86114 2.40075 5.88638 2.26387C5.91164 2.127 5.94951 1.98833 6 1.84786C6.0505 1.70738 6.09992 1.59464 6.14824 1.50964C6.1973 1.42536 6.2615 1.32919 6.34085 1.22113C6.42021 1.11307 6.523 1.00142 6.64923 0.886156C6.77548 0.770893 6.91975 0.66824 7.08206 0.578196C7.24436 0.488153 7.39406 0.419711 7.53111 0.37289C7.66817 0.326069 7.7836 0.295446 7.87737 0.281042C7.97115 0.266638 8.01803 0.258351 8.01803 0.256189Z" fill="white"/>
</svg>
