<svg width="14" height="10" viewBox="0 0 14 10" fill="none" xmlns="http://www.w3.org/2000/svg">
<path d="M7.29234 9.77523L4.58421 9.72462C3.70738 9.70698 2.82837 9.74219 1.96873 9.55946C0.661017 9.28646 0.568374 7.94786 0.471433 6.82503C0.337858 5.24647 0.389569 3.63926 0.641642 2.07387C0.783945 1.19553 1.34397 0.671414 2.21002 0.61438C5.13359 0.407397 8.0766 0.431926 10.9937 0.528492C11.3018 0.537344 11.612 0.585728 11.9157 0.640802C13.4153 0.909414 13.4519 2.42635 13.5491 3.70332C13.646 4.99346 13.6051 6.29024 13.4198 7.5716C13.2711 8.63253 12.9867 9.52223 11.7865 9.60812C10.2826 9.72043 8.81331 9.81084 7.30523 9.78206C7.3053 9.77523 7.29664 9.77523 7.29234 9.77523ZM5.70022 7.08925C6.83349 6.42431 7.94514 5.77045 9.07193 5.10996C7.93654 4.44502 6.82701 3.79116 5.70022 3.13068V7.08925Z" fill="white"/>
</svg>
